<svg xmlns="http://www.w3.org/2000/svg" width="175.574" height="40.757" viewBox="0 0 175.574 40.757">
  <g id="Group_231" data-name="Group 231" transform="translate(-19.726 -276.825)">
    <g id="Group_226" data-name="Group 226">
      <g id="Group_225" data-name="Group 225">
        <path id="Path_129" data-name="Path 129" d="M65.139,304.424l2.284-3.487-2.07-3.2H66.93l1.341,2.147,1.313-2.147h1.563l-2.079,3.246,2.284,3.437H69.725l-1.482-2.311-1.486,2.311Z" fill="#023378"/>
        <path id="Path_130" data-name="Path 130" d="M76.512,297.741l-1.941,3.884v2.8H73.29v-2.8l-1.92-3.884h1.4l.912,1.942a3.555,3.555,0,0,1,.246.643,3.844,3.844,0,0,1,.247-.643l.929-1.942Z" fill="#023378"/>
        <path id="Path_131" data-name="Path 131" d="M77.242,304.424v-6.683h1.349v2.63h2.644v-2.63h1.349v6.683H81.235V301.5H78.591v2.922Z" fill="#023378"/>
        <path id="Path_132" data-name="Path 132" d="M88.255,301.967l1.309.415a2.941,2.941,0,0,1-1,1.625,3.15,3.15,0,0,1-3.964-.378,3.484,3.484,0,0,1-.857-2.487,3.658,3.658,0,0,1,.862-2.592,2.954,2.954,0,0,1,2.265-.923,2.783,2.783,0,0,1,1.993.725,2.645,2.645,0,0,1,.683,1.231l-1.335.319A1.381,1.381,0,0,0,86.8,298.78a1.522,1.522,0,0,0-1.206.534,2.616,2.616,0,0,0-.462,1.728,2.8,2.8,0,0,0,.456,1.8,1.481,1.481,0,0,0,1.185.538,1.351,1.351,0,0,0,.925-.342,1.987,1.987,0,0,0,.557-1.071Z" fill="#023378"/>
        <path id="Path_133" data-name="Path 133" d="M90.68,303.143h1.281v.916a3.232,3.232,0,0,1-.1.878,1.31,1.31,0,0,1-.363.576,1.867,1.867,0,0,1-.677.4l-.25-.529a1.075,1.075,0,0,0,.551-.351,1.052,1.052,0,0,0,.173-.611h-.62Z" fill="#023378"/>
        <path id="Path_134" data-name="Path 134" d="M95.23,304.424l2.284-3.487-2.07-3.2h1.577l1.341,2.147,1.312-2.147h1.564l-2.079,3.246,2.284,3.437H99.816l-1.482-2.311-1.486,2.311Z" fill="#023378"/>
        <path id="Path_135" data-name="Path 135" d="M108.331,301.092a3.636,3.636,0,0,1-.8,2.448,2.908,2.908,0,0,1-2.334,1,3.027,3.027,0,0,1-2.931-1.568,3.889,3.889,0,0,1-.415-1.846,3.7,3.7,0,0,1,.811-2.521,3.042,3.042,0,0,1,2.421-.976,3.081,3.081,0,0,1,2.416.971,3.6,3.6,0,0,1,.832,2.492Zm-1.427-.575a2.157,2.157,0,0,0-.542-1.253,1.7,1.7,0,0,0-1.267-.484,1.677,1.677,0,0,0-1.359.589,2.192,2.192,0,0,0-.46,1.148Zm0,1.131H103.28a2.074,2.074,0,0,0,.5,1.167,1.8,1.8,0,0,0,2.626,0,2.074,2.074,0,0,0,.494-1.167Z" fill="#023378"/>
        <path id="Path_136" data-name="Path 136" d="M109.936,297.741h4.618V303.3h.588v2.58H114.02v-1.459h-4.207v1.459h-1.122V303.3h.565a6.208,6.208,0,0,0,.548-1.99,25.536,25.536,0,0,0,.132-2.865Zm1.285,1.122a13.042,13.042,0,0,1-.551,4.44h2.539v-4.44Z" fill="#023378"/>
        <path id="Path_137" data-name="Path 137" d="M122.244,301.092a3.637,3.637,0,0,1-.8,2.448,2.908,2.908,0,0,1-2.334,1,3.028,3.028,0,0,1-2.931-1.568,3.9,3.9,0,0,1-.414-1.846,3.7,3.7,0,0,1,.811-2.521,3.041,3.041,0,0,1,2.421-.976,3.081,3.081,0,0,1,2.416.971A3.6,3.6,0,0,1,122.244,301.092Zm-1.427-.575a2.158,2.158,0,0,0-.543-1.253,1.7,1.7,0,0,0-1.267-.484,1.676,1.676,0,0,0-1.358.589,2.192,2.192,0,0,0-.461,1.148Zm0,1.131h-3.624a2.068,2.068,0,0,0,.5,1.167,1.8,1.8,0,0,0,2.626,0,2.073,2.073,0,0,0,.5-1.167Z" fill="#023378"/>
        <path id="Path_138" data-name="Path 138" d="M129.506,301.092a3.637,3.637,0,0,1-.8,2.448,2.908,2.908,0,0,1-2.334,1,3.027,3.027,0,0,1-2.931-1.568,3.9,3.9,0,0,1-.415-1.846,3.7,3.7,0,0,1,.812-2.521,3.04,3.04,0,0,1,2.42-.976,3.078,3.078,0,0,1,2.416.971,3.6,3.6,0,0,1,.832,2.492Zm-1.427-.575a2.158,2.158,0,0,0-.543-1.253,1.7,1.7,0,0,0-1.267-.484,1.676,1.676,0,0,0-1.358.589,2.184,2.184,0,0,0-.461,1.148Zm0,1.131H124.45a2.067,2.067,0,0,0,.5,1.167,1.8,1.8,0,0,0,2.625,0,2.067,2.067,0,0,0,.5-1.167Z" fill="#023378"/>
        <path id="Path_139" data-name="Path 139" d="M139.192,304.424h-1.467l-.584-1.518H134.47l-.552,1.518h-1.431l2.6-6.683h1.427Zm-2.484-2.644-.921-2.48-.9,2.48Z" fill="#023378"/>
        <path id="Path_140" data-name="Path 140" d="M144.107,297.741v2.845a.683.683,0,0,0,.51-.251,4.791,4.791,0,0,0,.479-1.021,2.9,2.9,0,0,1,.82-1.331,2.537,2.537,0,0,1,1.382-.283h.2v1l-.2-.005a1.336,1.336,0,0,0-.6.1.769.769,0,0,0-.31.312,6.654,6.654,0,0,0-.351.862,3.035,3.035,0,0,1-.267.579,1.362,1.362,0,0,1-.508.437,1.419,1.419,0,0,1,.745.518,6.894,6.894,0,0,1,.645,1.091l.912,1.833h-1.586l-.8-1.728a1.157,1.157,0,0,0-.077-.141c-.025-.046-.079-.15-.164-.315a2.164,2.164,0,0,0-.42-.61.619.619,0,0,0-.4-.133v2.927H142.8V301.5a.645.645,0,0,0-.4.128,1.967,1.967,0,0,0-.419.615c-.1.183-.151.288-.169.315q-.041.069-.078.141l-.8,1.728h-1.586l.911-1.833a7.177,7.177,0,0,1,.636-1.078,1.416,1.416,0,0,1,.759-.531,1.377,1.377,0,0,1-.508-.435,3.118,3.118,0,0,1-.271-.581,7.344,7.344,0,0,0-.344-.853.77.77,0,0,0-.31-.319,1.4,1.4,0,0,0-.632-.105c-.036,0-.094,0-.173.005v-1h.2a2.545,2.545,0,0,1,1.4.287,2.957,2.957,0,0,1,.807,1.327,4.927,4.927,0,0,0,.481,1.023.677.677,0,0,0,.508.249v-2.845Z" fill="#023378"/>
        <path id="Path_141" data-name="Path 141" d="M156.966,304.424H155.5l-.583-1.518h-2.671l-.552,1.518h-1.431l2.6-6.683h1.427Zm-2.484-2.644-.921-2.48-.9,2.48Z" fill="#023378"/>
        <path id="Path_142" data-name="Path 142" d="M157,304.424l2.283-3.487-2.069-3.2h1.577l1.34,2.147,1.313-2.147h1.564l-2.079,3.246,2.284,3.437h-1.627l-1.482-2.311-1.486,2.311Z" fill="#023378"/>
        <path id="Path_143" data-name="Path 143" d="M163.23,297.741h1.508l1.56,3.469,1.331-3.469h1.408l-2.256,5.078a4.966,4.966,0,0,1-.752,1.256,1.265,1.265,0,0,1-.99.431,4.428,4.428,0,0,1-.934-.077v-1c.191.012.365.018.52.018a1.043,1.043,0,0,0,.672-.171,1.706,1.706,0,0,0,.39-.736Z" fill="#023378"/>
        <path id="Path_144" data-name="Path 144" d="M169.735,297.741H171v4.449l2.708-4.449h1.345v6.683H173.79v-4.363l-2.7,4.363h-1.349Zm3.464-1.664h.625a1.449,1.449,0,0,1-.436.974,1.556,1.556,0,0,1-1.974,0,1.453,1.453,0,0,1-.435-.974h.625a.7.7,0,0,0,.228.49,1.054,1.054,0,0,0,1.139,0,.7.7,0,0,0,.229-.49Z" fill="#023378"/>
        <path id="Path_145" data-name="Path 145" d="M176.386,303.143h1.281v.916a3.187,3.187,0,0,1-.1.878,1.31,1.31,0,0,1-.363.576,1.858,1.858,0,0,1-.677.4l-.25-.529a1.075,1.075,0,0,0,.551-.351,1.06,1.06,0,0,0,.174-.611h-.62Z" fill="#023378"/>
        <path id="Path_146" data-name="Path 146" d="M65.139,315.627l2.284-3.487-2.07-3.2H66.93l1.341,2.147,1.313-2.147h1.563l-2.079,3.246,2.284,3.437H69.725l-1.482-2.311-1.486,2.311Z" fill="#023378"/>
        <path id="Path_147" data-name="Path 147" d="M78.24,312.3a3.636,3.636,0,0,1-.8,2.448,2.908,2.908,0,0,1-2.334,1,3.027,3.027,0,0,1-2.931-1.568,3.889,3.889,0,0,1-.415-1.846,3.7,3.7,0,0,1,.811-2.521,3.043,3.043,0,0,1,2.421-.976,3.079,3.079,0,0,1,2.416.971A3.6,3.6,0,0,1,78.24,312.3Zm-1.427-.575a2.157,2.157,0,0,0-.542-1.253A1.7,1.7,0,0,0,75,309.983a1.677,1.677,0,0,0-1.359.589,2.192,2.192,0,0,0-.46,1.148Zm0,1.131H73.185a2.074,2.074,0,0,0,.5,1.167,1.8,1.8,0,0,0,2.626,0,2.074,2.074,0,0,0,.5-1.172Z" fill="#023378"/>
        <path id="Path_148" data-name="Path 148" d="M79.311,315.627v-6.683h1.35v2.63H83.3v-2.63h1.349v6.683H83.305V312.7H80.661v2.922Z" fill="#023378"/>
        <path id="Path_149" data-name="Path 149" d="M86.117,308.944h4.527v1.122H87.467v5.561h-1.35Z" fill="#023378"/>
        <path id="Path_150" data-name="Path 150" d="M97.536,312.3a3.636,3.636,0,0,1-.8,2.448,2.908,2.908,0,0,1-2.334,1,3.027,3.027,0,0,1-2.931-1.568,3.9,3.9,0,0,1-.415-1.846,3.7,3.7,0,0,1,.812-2.521,3.04,3.04,0,0,1,2.42-.976,3.079,3.079,0,0,1,2.416.971,3.6,3.6,0,0,1,.832,2.492Zm-1.426-.575a2.158,2.158,0,0,0-.543-1.253,1.88,1.88,0,0,0-2.626.1,2.191,2.191,0,0,0-.46,1.148Zm0,1.131H92.481a2.074,2.074,0,0,0,.5,1.167,1.8,1.8,0,0,0,2.626,0,2.067,2.067,0,0,0,.5-1.172Z" fill="#023378"/>
        <path id="Path_151" data-name="Path 151" d="M98.608,315.627v-6.683h1.349v2.63H102.6v-2.63h1.349v6.683H102.6V312.7H99.957v2.922Z" fill="#023378"/>
        <path id="Path_152" data-name="Path 152" d="M112.406,308.944l-1.941,3.884v2.8h-1.281v-2.8l-1.92-3.884h1.4l.912,1.942a3.557,3.557,0,0,1,.246.643,3.927,3.927,0,0,1,.246-.643l.93-1.942Z" fill="#023378"/>
        <path id="Path_153" data-name="Path 153" d="M113.149,308.944h1.263v4.449l2.708-4.449h1.345v6.683H117.2v-4.363l-2.7,4.363h-1.35Zm3.465-1.664h.624a1.444,1.444,0,0,1-.435.974,1.556,1.556,0,0,1-1.974,0,1.448,1.448,0,0,1-.435-.974h.624a.708.708,0,0,0,.228.49,1.056,1.056,0,0,0,1.14,0A.7.7,0,0,0,116.614,307.28Z" fill="#023378"/>
        <path id="Path_154" data-name="Path 154" d="M120.32,308.944H125v6.683h-1.35v-5.552h-2.01v2.853a11.9,11.9,0,0,1-.082,1.712,1.228,1.228,0,0,1-.4.757,1.5,1.5,0,0,1-.991.271c-.158,0-.446-.015-.862-.046v-1.044l.3.005a.99.99,0,0,0,.57-.114q.146-.114.146-.561v-4.964Z" fill="#023378"/>
        <path id="Path_155" data-name="Path 155" d="M126.93,308.944h4.618v5.562h.588v2.58h-1.122v-1.459h-4.207v1.459h-1.122v-2.58h.566a6.209,6.209,0,0,0,.547-1.99,25.532,25.532,0,0,0,.132-2.865Zm1.285,1.122a13.017,13.017,0,0,1-.551,4.44H130.2v-4.44Z" fill="#023378"/>
        <path id="Path_156" data-name="Path 156" d="M133.048,308.944h2.671a7.732,7.732,0,0,1,1.183.066,1.688,1.688,0,0,1,1.21.834,1.515,1.515,0,0,1,.205.782,1.584,1.584,0,0,1-.939,1.45,1.755,1.755,0,0,1,.939.606,1.61,1.61,0,0,1,.328,1.008,1.977,1.977,0,0,1-.212.886,1.786,1.786,0,0,1-.579.689,1.91,1.91,0,0,1-.9.316q-.337.037-1.628.046h-2.274Zm1.349,1.112V311.6h.884q.789,0,.98-.023a.891.891,0,0,0,.545-.239.709.709,0,0,0,.2-.522.733.733,0,0,0-.171-.5.777.777,0,0,0-.508-.235q-.2-.023-1.153-.023Zm0,2.658V314.5h1.249a6.139,6.139,0,0,0,.925-.041.829.829,0,0,0,.49-.267.819.819,0,0,0,.189-.567.874.874,0,0,0-.145-.511.827.827,0,0,0-.422-.3,4.576,4.576,0,0,0-1.2-.1Z" fill="#023378"/>
        <path id="Path_157" data-name="Path 157" d="M141.823,311.734h2.1a2.256,2.256,0,0,0-.5-1.242,1.538,1.538,0,0,0-2.044-.194,1.606,1.606,0,0,0-.52.8l-1.335-.306a2.417,2.417,0,0,1,.9-1.424,2.913,2.913,0,0,1,1.821-.536,2.825,2.825,0,0,1,2.279.969,3.77,3.77,0,0,1,.82,2.523,4.026,4.026,0,0,1-.38,1.819,2.9,2.9,0,0,1-1.046,1.181,2.956,2.956,0,0,1-1.6.419A2.606,2.606,0,0,1,139.5,313.6l1.354-.42a1.655,1.655,0,0,0,.518,1.074,1.481,1.481,0,0,0,.987.349,1.4,1.4,0,0,0,1.014-.415,2.242,2.242,0,0,0,.545-1.327h-2.1Z" fill="#023378"/>
        <path id="Path_158" data-name="Path 158" d="M146.427,315.627v-6.683h2.165a7.922,7.922,0,0,1,1.6.1,1.759,1.759,0,0,1,.962.655,2.073,2.073,0,0,1,.387,1.3,2.182,2.182,0,0,1-.223,1.035,1.839,1.839,0,0,1-.568.659,1.949,1.949,0,0,1-.7.316,7.67,7.67,0,0,1-1.4.1h-.88v2.521Zm1.349-5.552v1.9h.739a3.48,3.48,0,0,0,1.066-.105.884.884,0,0,0,.422-.328.9.9,0,0,0,.153-.52.861.861,0,0,0-.215-.6.933.933,0,0,0-.542-.3,6.567,6.567,0,0,0-.971-.045Z" fill="#023378"/>
        <path id="Path_159" data-name="Path 159" d="M152.672,308.944h1.263v4.449l2.708-4.449h1.344v6.683h-1.262v-4.363l-2.7,4.363h-1.349Z" fill="#023378"/>
        <path id="Path_160" data-name="Path 160" d="M159.382,308.944h1.263v4.449l2.708-4.449H164.7v6.683h-1.262v-4.363l-2.7,4.363h-1.35Zm3.465-1.664h.624a1.444,1.444,0,0,1-.435.974,1.556,1.556,0,0,1-1.974,0,1.444,1.444,0,0,1-.435-.974h.624a.7.7,0,0,0,.228.49,1.056,1.056,0,0,0,1.14,0,.708.708,0,0,0,.228-.49Z" fill="#023378"/>
        <path id="Path_161" data-name="Path 161" d="M166.079,315.627v-6.683h1.349v2.63h2.644v-2.63h1.349v6.683h-1.349V312.7h-2.644v2.922Z" fill="#023378"/>
        <path id="Path_162" data-name="Path 162" d="M179.408,315.627v-2.79h-.274a1.577,1.577,0,0,0-.9.192,5.507,5.507,0,0,0-.9,1.144l-.975,1.454h-1.614l.816-1.3a8.049,8.049,0,0,1,.77-1.087,2.955,2.955,0,0,1,.721-.558,2.1,2.1,0,0,1-1.35-.65,1.84,1.84,0,0,1-.414-1.206,1.935,1.935,0,0,1,.307-1.082,1.5,1.5,0,0,1,.812-.634,5.244,5.244,0,0,1,1.506-.162h2.84v6.683Zm0-5.552h-1.053a9.51,9.51,0,0,0-1.055.036.7.7,0,0,0-.436.246.806.806,0,0,0-.182.547.839.839,0,0,0,.175.559.744.744,0,0,0,.447.257,7.524,7.524,0,0,0,1.106.05h1Z" fill="#023378"/>
        <path id="Path_163" data-name="Path 163" d="M188.147,315.627h-1.468l-.584-1.518h-2.671l-.552,1.518h-1.431l2.6-6.683h1.427Zm-2.485-2.644-.921-2.48-.9,2.48Z" fill="#023378"/>
        <path id="Path_164" data-name="Path 164" d="M188.844,315.627v-6.683h2.019l1.213,4.559,1.2-4.559H195.3v6.683h-1.254v-5.261l-1.326,5.261h-1.3l-1.322-5.261v5.261Z" fill="#023378"/>
      </g>
    </g>
    <rect id="Rectangle_1704" data-name="Rectangle 1704" width="40.757" height="40.757" transform="translate(19.726 276.825)" fill="#023378"/>
    <g id="Group_230" data-name="Group 230">
      <g id="Group_227" data-name="Group 227">
        <path id="Path_165" data-name="Path 165" d="M23.01,309.7v-3h.906l.544,2.045L25,306.7h.908v3h-.563v-2.36l-.6,2.36h-.583l-.593-2.36v2.36Z" fill="#fff"/>
        <path id="Path_166" data-name="Path 166" d="M26.384,308.215a1.917,1.917,0,0,1,.137-.769,1.447,1.447,0,0,1,.28-.411,1.171,1.171,0,0,1,.387-.27,1.647,1.647,0,0,1,.646-.118,1.408,1.408,0,0,1,1.061.411,1.836,1.836,0,0,1,0,2.279,1.394,1.394,0,0,1-1.055.41,1.412,1.412,0,0,1-1.064-.408,1.548,1.548,0,0,1-.392-1.124Zm.624-.02a1.128,1.128,0,0,0,.235.772.768.768,0,0,0,.6.263.76.76,0,0,0,.594-.261,1.145,1.145,0,0,0,.232-.782,1.125,1.125,0,0,0-.226-.769.837.837,0,0,0-1.2,0,1.136,1.136,0,0,0-.235.782Z" fill="#fff"/>
        <path id="Path_167" data-name="Path 167" d="M29.767,309.7v-3h.606v1.18h1.186V306.7h.6v3h-.6v-1.311H30.373V309.7Z" fill="#fff"/>
        <path id="Path_168" data-name="Path 168" d="M32.821,306.7h2.031v.5H33.426v2.5h-.6Z" fill="#fff"/>
        <path id="Path_169" data-name="Path 169" d="M34.987,308.215a1.917,1.917,0,0,1,.137-.769,1.424,1.424,0,0,1,.279-.411,1.174,1.174,0,0,1,.388-.27,1.647,1.647,0,0,1,.646-.118,1.41,1.41,0,0,1,1.061.411,1.839,1.839,0,0,1,0,2.279,1.577,1.577,0,0,1-2.119,0,1.548,1.548,0,0,1-.392-1.124Zm.624-.02a1.123,1.123,0,0,0,.235.772.768.768,0,0,0,.6.263.757.757,0,0,0,.594-.261,1.145,1.145,0,0,0,.233-.782,1.13,1.13,0,0,0-.226-.769.837.837,0,0,0-1.2,0,1.131,1.131,0,0,0-.236.782Z" fill="#fff"/>
        <path id="Path_170" data-name="Path 170" d="M38.478,306.7h2.1v3h-.606v-2.5h-.9v1.28a5.431,5.431,0,0,1-.037.768.555.555,0,0,1-.179.34.676.676,0,0,1-.445.122q-.106,0-.387-.021v-.468h.135a.447.447,0,0,0,.256-.051c.044-.034.065-.118.065-.252V308.4Z" fill="#fff"/>
        <path id="Path_171" data-name="Path 171" d="M42.062,306.7h.677l.7,1.556.6-1.556h.633l-1.013,2.278a2.233,2.233,0,0,1-.337.564.567.567,0,0,1-.444.193,1.986,1.986,0,0,1-.42-.035v-.45c.086.006.164.008.234.008a.467.467,0,0,0,.3-.076.757.757,0,0,0,.175-.331Z" fill="#fff"/>
        <path id="Path_172" data-name="Path 172" d="M45.028,306.7h2.1v3h-.6v-2.5h-.9v1.28a5.429,5.429,0,0,1-.037.768.55.55,0,0,1-.179.34.676.676,0,0,1-.445.122q-.106,0-.387-.021v-.468h.135a.447.447,0,0,0,.256-.051q.066-.051.066-.252V308.4Z" fill="#fff"/>
        <path id="Path_173" data-name="Path 173" d="M49.67,308.594l.587.186a1.314,1.314,0,0,1-.449.729,1.413,1.413,0,0,1-1.778-.17,1.562,1.562,0,0,1-.385-1.115,1.637,1.637,0,0,1,.387-1.163,1.326,1.326,0,0,1,1.017-.414,1.245,1.245,0,0,1,.893.325,1.174,1.174,0,0,1,.307.552l-.6.143a.62.62,0,0,0-.632-.5.683.683,0,0,0-.541.239,1.171,1.171,0,0,0-.208.776,1.249,1.249,0,0,0,.2.809.663.663,0,0,0,.532.242.6.6,0,0,0,.415-.154.886.886,0,0,0,.255-.485Z" fill="#fff"/>
        <path id="Path_174" data-name="Path 174" d="M50.793,306.7H51.4v1.2h.81a1.558,1.558,0,0,1,.549.087.808.808,0,0,1,.383.311.884.884,0,0,1,.154.515.869.869,0,0,1-.16.524.781.781,0,0,1-.355.292,1.769,1.769,0,0,1-.571.071H50.793ZM51.4,309.2h.591a1.832,1.832,0,0,0,.393-.028.386.386,0,0,0,.2-.125.351.351,0,0,0,.087-.24.344.344,0,0,0-.142-.3.941.941,0,0,0-.513-.1H51.4Zm2.245-2.495h.606v3h-.606Z" fill="#fff"/>
        <path id="Path_175" data-name="Path 175" d="M54.88,309.7v-3h.6v1.18h1.186V306.7h.606v3h-.606v-1.311H55.485V309.7Z" fill="#fff"/>
        <path id="Path_176" data-name="Path 176" d="M23.521,312.241l-.589-.137a.976.976,0,0,1,1.082-.733,1.19,1.19,0,0,1,.8.233.7.7,0,0,1,.269.545.651.651,0,0,1-.123.387,1.047,1.047,0,0,1-.368.3.955.955,0,0,1,.448.289.721.721,0,0,1,.149.462.8.8,0,0,1-.29.638,1.32,1.32,0,0,1-.866.243,1.494,1.494,0,0,1-.742-.156.98.98,0,0,1-.409-.586l.554-.182a.578.578,0,0,0,.228.349.712.712,0,0,0,.351.08.589.589,0,0,0,.417-.124.38.38,0,0,0,.131-.283.352.352,0,0,0-.148-.3.736.736,0,0,0-.447-.113h-.137V312.7H23.9a.643.643,0,0,0,.426-.125.412.412,0,0,0,.147-.331.364.364,0,0,0-.12-.276.48.48,0,0,0-.342-.113.465.465,0,0,0-.49.385Z" fill="#fff"/>
        <path id="Path_177" data-name="Path 177" d="M28.422,314.421h-.659l-.262-.681H26.3l-.248.681H25.41l1.168-3h.64Zm-1.115-1.186-.413-1.113-.4,1.113Z" fill="#fff"/>
        <path id="Path_178" data-name="Path 178" d="M30.557,313.319l.587.186a1.319,1.319,0,0,1-.449.729,1.414,1.414,0,0,1-1.779-.17,1.563,1.563,0,0,1-.384-1.116,1.636,1.636,0,0,1,.387-1.162,1.321,1.321,0,0,1,1.016-.415,1.247,1.247,0,0,1,.894.326,1.191,1.191,0,0,1,.307.552l-.6.143a.618.618,0,0,0-.632-.5.685.685,0,0,0-.541.239,1.176,1.176,0,0,0-.207.775,1.261,1.261,0,0,0,.2.81.666.666,0,0,0,.532.242.608.608,0,0,0,.415-.154.893.893,0,0,0,.254-.485Z" fill="#fff"/>
        <path id="Path_179" data-name="Path 179" d="M31.694,311.423h2.031v.5H32.3v2.495h-.6Z" fill="#fff"/>
        <path id="Path_180" data-name="Path 180" d="M34.046,311.423h.567v2l1.215-2h.6v3h-.567v-1.957l-1.212,1.957h-.606Z" fill="#fff"/>
        <path id="Path_181" data-name="Path 181" d="M37.057,311.423h.566v2l1.215-2h.6v3h-.567v-1.957l-1.213,1.957h-.6Zm1.554-.747h.28a.649.649,0,0,1-.2.437.7.7,0,0,1-.885,0,.654.654,0,0,1-.2-.437h.28a.317.317,0,0,0,.1.22.473.473,0,0,0,.511,0,.312.312,0,0,0,.109-.22Z" fill="#fff"/>
        <path id="Path_182" data-name="Path 182" d="M40.061,314.421v-3h.606v1.18h1.186v-1.18h.606v3h-.606V313.11H40.667v1.311Z" fill="#fff"/>
        <path id="Path_183" data-name="Path 183" d="M44.279,311.423H46.31v.5H44.884v2.495h-.6Z" fill="#fff"/>
        <path id="Path_184" data-name="Path 184" d="M49.063,314.421H48.4l-.261-.681h-1.2l-.248.681h-.642l1.168-3h.64Zm-1.115-1.186-.413-1.113-.4,1.113Z" fill="#fff"/>
        <path id="Path_185" data-name="Path 185" d="M49.811,312.241l-.589-.137a.976.976,0,0,1,1.082-.733,1.188,1.188,0,0,1,.8.233.7.7,0,0,1,.269.545.651.651,0,0,1-.123.387,1.029,1.029,0,0,1-.368.3.949.949,0,0,1,.448.289.716.716,0,0,1,.149.462.794.794,0,0,1-.289.638,1.321,1.321,0,0,1-.866.243,1.5,1.5,0,0,1-.743-.156.988.988,0,0,1-.409-.586l.555-.182a.578.578,0,0,0,.228.349.7.7,0,0,0,.35.08.593.593,0,0,0,.418-.124.38.38,0,0,0,.131-.283.353.353,0,0,0-.149-.3.736.736,0,0,0-.447-.113h-.137V312.7h.07a.642.642,0,0,0,.425-.125.412.412,0,0,0,.148-.331.364.364,0,0,0-.12-.276.482.482,0,0,0-.343-.113.466.466,0,0,0-.49.385Z" fill="#fff"/>
        <path id="Path_186" data-name="Path 186" d="M54.712,314.421h-.659l-.261-.681h-1.2l-.247.681H51.7l1.168-3h.64ZM53.6,313.235l-.413-1.113-.4,1.113Z" fill="#fff"/>
        <path id="Path_187" data-name="Path 187" d="M55.033,314.421v-3h.972a3.524,3.524,0,0,1,.72.045.785.785,0,0,1,.431.293.93.93,0,0,1,.174.584.974.974,0,0,1-.1.464.825.825,0,0,1-.255.3.88.88,0,0,1-.314.142,3.421,3.421,0,0,1-.628.043h-.394v1.131Zm.606-2.491v.851h.331a1.582,1.582,0,0,0,.479-.047.394.394,0,0,0,.257-.381.388.388,0,0,0-.1-.27.419.419,0,0,0-.243-.133,3.038,3.038,0,0,0-.436-.02Z" fill="#fff"/>
      </g>
      <g id="Group_229" data-name="Group 229">
        <g id="Group_228" data-name="Group 228">
          <path id="Path_188" data-name="Path 188" d="M40.144,283.041a1.3,1.3,0,0,0,1.195-.876,1.121,1.121,0,0,0-.08-.717v-.159a1.288,1.288,0,0,1-.239-.717.172.172,0,0,0-.159.16c-.079,0-.079.08-.079.159a.869.869,0,0,0-.08.4v.08c-.08.079-.08.079-.239,0v-.478a.969.969,0,0,0-.4-.956,1.35,1.35,0,0,1,0,.8v.318c.08.079,0,.159,0,.239a.165.165,0,0,1-.319,0v-.159c0-.08-.08-.159-.08-.239a1.081,1.081,0,0,0-.239-.319,1.006,1.006,0,0,1-.079.478c-.239.477-.478.557-.4,1.2a1.3,1.3,0,0,0,1.2.791Z" fill="#ffcd02"/>
          <path id="Path_189" data-name="Path 189" d="M40.144,287.9h.017a2.141,2.141,0,0,0,2.133-2.15v-.018a2.142,2.142,0,0,0-2.15-2.133h-.018a2.142,2.142,0,0,0-2.133,2.15v.018a2.143,2.143,0,0,0,2.151,2.133Z" fill="#ffcd02"/>
          <rect id="Rectangle_1705" data-name="Rectangle 1705" width="2.549" height="13.061" transform="translate(34.25 290.128)" fill="#ffcd02"/>
          <rect id="Rectangle_1706" data-name="Rectangle 1706" width="5.495" height="1.114" transform="translate(37.357 292.279)" fill="#ffcd02"/>
          <path id="Path_190" data-name="Path 190" d="M37.436,290.129l2.708,1.593,2.708-1.593Z" fill="#ffcd02"/>
          <path id="Path_191" data-name="Path 191" d="M38.074,298.732a2.264,2.264,0,0,0,1.831.876,2.784,2.784,0,0,1-1.115-.478,1.071,1.071,0,0,1-.4-.955,1.517,1.517,0,0,1,.4-1.036,2.273,2.273,0,0,1,1.11-.639,2.082,2.082,0,0,0,1.036-.478,1.278,1.278,0,0,0,.4-.876,1.024,1.024,0,0,0-.4-.875,1.513,1.513,0,0,0-1.035-.4,2.6,2.6,0,0,0-1.832.8h0a3.093,3.093,0,0,0-.8,2.073,2.763,2.763,0,0,0,.805,1.988Zm1.99-4.224c.319,0,.558.159.558.478a.532.532,0,0,1-.558.478c-.318,0-.557-.159-.557-.478a.534.534,0,0,1,.557-.478Z" fill="#ffcd02"/>
          <path id="Path_192" data-name="Path 192" d="M40.066,303.113l2.788-1.593H37.438Z" fill="#ffcd02"/>
          <rect id="Rectangle_1707" data-name="Rectangle 1707" width="5.495" height="1.119" transform="translate(37.359 299.844)" fill="#ffcd02"/>
          <path id="Path_193" data-name="Path 193" d="M40.463,293.794a2.472,2.472,0,0,1,1.035.478,1.159,1.159,0,0,1,.4.956,1.466,1.466,0,0,1-.4.956,2.122,2.122,0,0,1-1.115.557,1.476,1.476,0,0,0-.956.4,1.285,1.285,0,0,0-.4.876,1.517,1.517,0,0,0,.4,1.035c.239.32.638.32,1.036.32a2.227,2.227,0,0,0,1.752-.876h0a2.667,2.667,0,0,0,.876-1.829,2.765,2.765,0,0,0-.8-1.991A2.383,2.383,0,0,0,40.463,293.794Zm.477,4.4a.545.545,0,0,1-.557.531h-.026a.545.545,0,0,1-.532-.557v-.026a.546.546,0,0,1,.558-.532.671.671,0,0,1,.557.558Z" fill="#ffcd02"/>
          <path id="Path_194" data-name="Path 194" d="M39.9,288.778a3.115,3.115,0,0,1-2.787-2.231,3.073,3.073,0,0,0,2.787,2.867h.038a3.055,3.055,0,0,0,3.228-2.87,3,3,0,0,1-3.266,2.234Z" fill="#ffcd02"/>
          <rect id="Rectangle_1708" data-name="Rectangle 1708" width="2.549" height="13.145" transform="translate(43.41 290.128)" fill="#ffcd02"/>
        </g>
      </g>
    </g>
  </g>
</svg>
