<svg xmlns="http://www.w3.org/2000/svg" width="207.981" height="39.92" viewBox="0 0 207.981 39.92">
  <g id="Group_224" data-name="Group 224" transform="translate(-461.88 -276.824)">
    <g id="Group_222" data-name="Group 222">
      <g id="Group_221" data-name="Group 221">
        <path id="Path_80" data-name="Path 80" d="M509.457,290.166h3.95v1.109h-2.529v2.114h2.391V294.5h-2.391v3.431h-1.421v-7.762Z" fill="#5293c5"/>
        <path id="Path_81" data-name="Path 81" d="M516.56,292.106c1.213,0,2.53.624,2.53,2.946,0,2.46-1.351,3.014-2.53,3.014s-2.6-.554-2.6-3.014C513.962,292.7,515.382,292.106,516.56,292.106Zm0,4.956c.9,0,1.109-1.04,1.109-1.976s-.208-1.975-1.109-1.975-1.108,1.04-1.108,1.975.208,1.976,1.108,1.976Z" fill="#5293c5"/>
        <path id="Path_82" data-name="Path 82" d="M522.625,292.106c1.212,0,2.529.624,2.529,2.946,0,2.46-1.351,3.014-2.529,3.014-1.213,0-2.53-.554-2.53-3.014C520.026,292.7,521.412,292.106,522.625,292.106Zm0,4.956c.9,0,1.108-1.04,1.108-1.976s-.208-1.975-1.108-1.975-1.109,1.04-1.109,1.975.173,1.976,1.109,1.976Z" fill="#5293c5"/>
        <path id="Path_83" data-name="Path 83" d="M530.976,289.508v7.45a3.7,3.7,0,0,0,.069.97h-1.352c0-.139-.069-.485-.069-.9h0a1.537,1.537,0,0,1-1.559.97c-1.421,0-2.045-1.421-2.045-2.945,0-1.906.763-3.015,1.976-3.015a1.594,1.594,0,0,1,1.49.9h0v-3.43Zm-2.461,7.554c.832,0,1.109-.9,1.109-1.976,0-1.108-.277-1.975-1.039-1.975s-1.04.763-1.04,1.906c-.069,1.317.139,2.045.97,2.045Z" fill="#5293c5"/>
        <path id="Path_84" data-name="Path 84" d="M535.48,292.557a3.659,3.659,0,0,1,1.837-.416c1.836,0,2.252.832,2.252,2.322v2.529c0,.416.069.763.069,1.04h-1.282a2.612,2.612,0,0,1-.069-.763h0a1.776,1.776,0,0,1-1.629.832,1.693,1.693,0,0,1-1.767-1.7c0-1.559,1.282-1.975,3.015-1.975h.277v-.208a1,1,0,0,0-1.039-1.109,2.983,2.983,0,0,0-1.629.555Zm2.772,2.6h-.138c-1.213,0-1.906.277-1.906,1.109a.837.837,0,0,0,.9.9c.832,0,1.109-.624,1.109-1.7l.034-.312Z" fill="#5293c5"/>
        <path id="Path_85" data-name="Path 85" d="M540.851,293.111a4.278,4.278,0,0,0-.069-.97h1.351c0,.277.07.554.07.9h0a1.651,1.651,0,0,1,1.559-.97c1.351,0,1.7.97,1.7,2.183V298h-1.421v-3.43c0-.9-.208-1.282-.762-1.282-.693,0-.97.623-.97,1.351V298h-1.421v-4.886Z" fill="#5293c5"/>
        <path id="Path_86" data-name="Path 86" d="M551.385,289.508v7.45a3.647,3.647,0,0,0,.07.97H550.1c0-.139-.069-.485-.069-.9h0a1.537,1.537,0,0,1-1.559.97c-1.421,0-2.045-1.421-2.045-2.945,0-1.906.762-3.015,1.975-3.015a1.592,1.592,0,0,1,1.49.9h0v-3.43Zm-2.46,7.554c.832,0,1.109-.9,1.109-1.976,0-1.108-.277-1.975-1.04-1.975s-1.039.763-1.039,1.906c-.07,1.317.138,2.045.97,2.045Z" fill="#5293c5"/>
        <path id="Path_87" data-name="Path 87" d="M559.147,296.057h-2.668l-.554,1.906H554.5l2.6-7.866h1.559l2.53,7.866H559.7Zm-.312-1.04-.97-3.673h0l-1.039,3.673Z" fill="#5293c5"/>
        <path id="Path_88" data-name="Path 88" d="M562.023,298.863a3.415,3.415,0,0,0,1.7.486c1.352,0,1.56-.9,1.56-1.837v-.554h0a1.631,1.631,0,0,1-1.56.97c-.762,0-2.044-.555-2.044-2.876,0-1.629.554-3.015,2.114-3.015a1.717,1.717,0,0,1,1.559.97h.069a4.226,4.226,0,0,1,.07-.9h1.282c0,.278-.07.624-.07.9v4.3c0,1.837-.554,3.084-2.668,3.084a5.283,5.283,0,0,1-1.975-.346v-1.179Zm2.045-1.871c.831,0,1.213-.623,1.213-1.975,0-1.213-.486-1.906-1.109-1.836-.693,0-.971.693-.971,1.9C563.132,296.4,563.583,296.992,564.068,296.992Z" fill="#5293c5"/>
        <path id="Path_89" data-name="Path 89" d="M567.914,293.111a4.275,4.275,0,0,0-.069-.97h1.282c0,.347.069.693.069,1.04h0a1.619,1.619,0,0,1,1.49-1.109h.208v1.351c-.138,0-.277-.069-.416-.069-.554,0-1.212.346-1.212,1.421V298h-1.421l.069-4.886Z" fill="#5293c5"/>
        <path id="Path_90" data-name="Path 90" d="M572,289.715h1.421v1.421H572Zm0,2.495h1.421v5.753H572Z" fill="#5293c5"/>
        <path id="Path_91" data-name="Path 91" d="M578.691,297.824a3.985,3.985,0,0,1-1.421.208,2.637,2.637,0,0,1-2.737-2.946c0-1.7.831-3.014,2.806-3.014a5.1,5.1,0,0,1,1.213.208l-.069,1.108a2.011,2.011,0,0,0-.97-.277c-1.04,0-1.56.693-1.56,1.975,0,1.04.485,1.906,1.629,1.906a2,2,0,0,0,.97-.277Z" fill="#5293c5"/>
        <path id="Path_92" data-name="Path 92" d="M584.166,297.062a4.282,4.282,0,0,0,.069.97h-1.317c0-.277-.069-.555-.069-.9h0a1.709,1.709,0,0,1-1.559.97c-1.352,0-1.7-.97-1.7-2.183v-3.742h1.42v3.43c0,.9.278,1.282.832,1.282.762,0,.97-.693.97-1.42v-3.292h1.421l-.069,4.886Z" fill="#5293c5"/>
        <path id="Path_93" data-name="Path 93" d="M585.586,289.508h1.421v8.454h-1.421Z" fill="#5293c5"/>
        <path id="Path_94" data-name="Path 94" d="M588.809,291l1.421-.416v1.628h1.109v1.04H590.23v3.015c0,.623.208.762.623.762a1.068,1.068,0,0,0,.555-.139v.971a2.468,2.468,0,0,1-.9.207c-1.04,0-1.629-.485-1.629-1.7v-3.154h-.9v-1.039h.9Z" fill="#5293c5"/>
        <path id="Path_95" data-name="Path 95" d="M596.848,297.062a4.282,4.282,0,0,0,.069.97h-1.351c0-.277-.069-.555-.069-.9h0a1.709,1.709,0,0,1-1.56.97c-1.351,0-1.7-.97-1.7-2.183v-3.742h1.42v3.43c0,.9.277,1.282.832,1.282.762,0,.97-.693.97-1.42v-3.292h1.421l-.035,4.886Z" fill="#5293c5"/>
        <path id="Path_96" data-name="Path 96" d="M598.165,293.111a4.275,4.275,0,0,0-.069-.97h1.282c0,.347.069.693.069,1.04h0a1.619,1.619,0,0,1,1.49-1.109h.208v1.351c-.139,0-.277-.069-.416-.069-.554,0-1.213.346-1.213,1.421V298H598.1l.069-4.886Z" fill="#5293c5"/>
        <path id="Path_97" data-name="Path 97" d="M606.2,297.685a4.15,4.15,0,0,1-1.767.347,2.563,2.563,0,0,1-2.668-2.876c0-1.768.9-3.084,2.391-3.084,1.282,0,2.321.693,2.321,3.084v.277H603.12c0,.97.416,1.629,1.49,1.629a3.027,3.027,0,0,0,1.559-.416Zm-1.039-3.084c0-1.039-.347-1.559-.971-1.559-.693,0-1.039.762-1.039,1.559Z" fill="#5293c5"/>
        <path id="Path_98" data-name="Path 98" d="M613.516,290.027c1.628,0,3.084,1.213,3.084,4.02s-1.49,4.019-3.084,4.019-3.084-1.212-3.084-4.019S611.887,290.027,613.516,290.027Zm0,6.965c.9,0,1.628-.762,1.628-2.945s-.693-2.946-1.628-2.946c-.9,0-1.629.763-1.629,2.946C611.887,296.2,612.615,296.992,613.516,296.992Z" fill="#5293c5"/>
        <path id="Path_99" data-name="Path 99" d="M617.882,293.111a4.223,4.223,0,0,0-.07-.97h1.282c0,.347.07.693.07,1.04h0a1.617,1.617,0,0,1,1.49-1.109h.208v1.351c-.139,0-.278-.069-.416-.069-.555,0-1.213.346-1.213,1.421V298h-1.421l.07-4.886Z" fill="#5293c5"/>
        <path id="Path_100" data-name="Path 100" d="M621.832,298.863a3.408,3.408,0,0,0,1.7.486c1.351,0,1.559-.9,1.559-1.837v-.554h0a1.631,1.631,0,0,1-1.559.97c-.832,0-2.045-.555-2.045-2.876,0-1.629.555-3.015,2.114-3.015a1.716,1.716,0,0,1,1.559.97h.07a4.282,4.282,0,0,1,.069-.9h1.282c0,.278-.069.624-.069.9v4.3c0,1.837-.555,3.084-2.668,3.084a5.282,5.282,0,0,1-1.975-.346v-1.179Zm2.044-1.871c.832,0,1.213-.623,1.213-1.975,0-1.213-.485-1.906-1.109-1.836-.693,0-.97.693-.97,1.9C622.941,296.4,623.357,296.992,623.876,296.992Z" fill="#5293c5"/>
        <path id="Path_101" data-name="Path 101" d="M628,292.557a3.658,3.658,0,0,1,1.836-.416c1.837,0,2.183.832,2.183,2.322v2.529c0,.416.07.763.07,1.04h-1.282a2.575,2.575,0,0,1-.07-.763h0a1.776,1.776,0,0,1-1.628.832,1.693,1.693,0,0,1-1.767-1.7c0-1.559,1.282-1.975,3.014-1.975h.277v-.208a1,1,0,0,0-1.039-1.109,2.986,2.986,0,0,0-1.629.555v-1.109Zm2.772,2.6h-.139c-1.212,0-1.9.277-1.9,1.109a.837.837,0,0,0,.9.9c.831,0,1.108-.624,1.108-1.7l.035-.312Z" fill="#5293c5"/>
        <path id="Path_102" data-name="Path 102" d="M633.3,293.111a4.223,4.223,0,0,0-.07-.97h1.352c0,.277.069.554.069.9h0a1.651,1.651,0,0,1,1.559-.97c1.352,0,1.7.97,1.7,2.183V298h-1.42v-3.43c0-.9-.208-1.282-.763-1.282-.693,0-.97.623-.97,1.351V298h-1.421l-.034-4.886Z" fill="#5293c5"/>
        <path id="Path_103" data-name="Path 103" d="M639.262,289.715h1.42v1.421h-1.42Zm0,2.495h1.42v5.753h-1.42Z" fill="#5293c5"/>
        <path id="Path_104" data-name="Path 104" d="M641.791,296.75l2.461-3.535h-2.391v-1.039h3.811v1.212l-2.46,3.535h2.53v1.04h-3.951Z" fill="#5293c5"/>
        <path id="Path_105" data-name="Path 105" d="M646.954,292.557a3.659,3.659,0,0,1,1.837-.416c1.836,0,2.183.832,2.183,2.322v2.529c0,.416.069.763.069,1.04h-1.282a2.61,2.61,0,0,1-.069-.763h0a1.779,1.779,0,0,1-1.629.832,1.693,1.693,0,0,1-1.767-1.7c0-1.559,1.282-1.975,3.015-1.975h.277v-.208a1,1,0,0,0-1.04-1.109,2.983,2.983,0,0,0-1.628.555v-1.109Zm2.738,2.6h-.139c-1.213,0-1.906.277-1.906,1.109a.838.838,0,0,0,.9.9c.832,0,1.109-.624,1.109-1.7l.035-.312Z" fill="#5293c5"/>
        <path id="Path_106" data-name="Path 106" d="M652.776,291l1.42-.416v1.628h1.1v1.04h-1.1v3.015c0,.623.208.762.624.762a1.07,1.07,0,0,0,.555-.139v.971a2.473,2.473,0,0,1-.9.207c-1.04,0-1.629-.485-1.629-1.7v-3.154h-.97v-1.039h.9V291Z" fill="#5293c5"/>
        <path id="Path_107" data-name="Path 107" d="M656.38,289.715h1.42v1.421h-1.42Zm0,2.495h1.42v5.753h-1.42Z" fill="#5293c5"/>
        <path id="Path_108" data-name="Path 108" d="M661.577,292.106c1.213,0,2.53.624,2.53,2.946,0,2.46-1.352,3.014-2.53,3.014-1.213,0-2.529-.554-2.529-3.014C659.048,292.7,660.364,292.106,661.577,292.106Zm0,4.956c.9,0,1.109-1.04,1.109-1.976s-.208-1.975-1.109-1.975-1.109,1.04-1.109,1.975.208,1.976,1.109,1.976Z" fill="#5293c5"/>
        <path id="Path_109" data-name="Path 109" d="M665.25,293.111a4.275,4.275,0,0,0-.069-.97h1.351c0,.277.07.554.07.9h0a1.651,1.651,0,0,1,1.559-.97c1.352,0,1.7.97,1.7,2.183V298H668.44v-3.43c0-.9-.208-1.282-.762-1.282-.693,0-.97.623-.97,1.351V298h-1.421v-4.886Z" fill="#5293c5"/>
        <path id="Path_110" data-name="Path 110" d="M511.64,304.789c1.213,0,2.53.624,2.53,2.945,0,2.461-1.352,3.015-2.53,3.015-1.213,0-2.6-.554-2.6-2.945S510.462,304.789,511.64,304.789Zm0,4.99c.9,0,1.109-1.04,1.109-1.975,0-.9-.208-1.976-1.109-1.976s-1.109,1.04-1.109,1.976S510.739,309.779,511.64,309.779Z" fill="#5293c5"/>
        <path id="Path_111" data-name="Path 111" d="M515.729,305.9h-.97v-1.04h.97v-1.213a1.509,1.509,0,0,1,1.7-1.628,4.107,4.107,0,0,1,.97.138l-.069.971a1.342,1.342,0,0,0-.555-.07c-.416,0-.623.277-.623.693v.971h1.039v1.039H517.15v4.782h-1.421Z" fill="#5293c5"/>
        <path id="Path_112" data-name="Path 112" d="M522.486,303.715l1.421-.416v1.628h1.108v1.04H523.8v3.015c0,.623.208.762.623.762a1.069,1.069,0,0,0,.555-.139v.971a2.465,2.465,0,0,1-.9.208c-1.04,0-1.629-.486-1.629-1.7V305.93h-.9v-1.039h.9C522.486,304.927,522.486,303.715,522.486,303.715Z" fill="#5293c5"/>
        <path id="Path_113" data-name="Path 113" d="M525.916,302.259h1.421v3.362h0a1.6,1.6,0,0,1,1.421-.832c1.351,0,1.7.97,1.7,2.183v3.742h-1.421v-3.43c0-.9-.208-1.282-.762-1.282-.693,0-.971.623-.971,1.351v3.361h-1.42l.034-8.455Z" fill="#5293c5"/>
        <path id="Path_114" data-name="Path 114" d="M536,310.4a4.15,4.15,0,0,1-1.767.347,2.562,2.562,0,0,1-2.668-2.876c0-1.767.9-3.084,2.391-3.084,1.282,0,2.321.693,2.321,3.084v.277h-3.361c0,.97.416,1.629,1.49,1.629a3.028,3.028,0,0,0,1.559-.416Zm-1.074-3.084c0-1.039-.347-1.559-.97-1.559-.693,0-1.04.762-1.04,1.559Z" fill="#5293c5"/>
        <path id="Path_115" data-name="Path 115" d="M541.821,302.814v5.059c0,1.351.416,1.767,1.283,1.767.831,0,1.212-.416,1.212-1.767v-5.059h1.421v5.059a2.536,2.536,0,0,1-2.668,2.876c-1.49,0-2.668-.832-2.668-2.876v-5.059Z" fill="#5293c5"/>
        <path id="Path_116" data-name="Path 116" d="M547.158,305.828a4.282,4.282,0,0,0-.069-.97h1.351c0,.277.069.555.069.9h0a1.654,1.654,0,0,1,1.56-.97c1.351,0,1.7.97,1.7,2.183v3.742h-1.42v-3.43c0-.9-.208-1.282-.763-1.282-.693,0-.97.623-.97,1.351v3.361H547.2v-4.886Z" fill="#5293c5"/>
        <path id="Path_117" data-name="Path 117" d="M553.083,302.467H554.5v1.421h-1.421Zm.07,2.46h1.42v5.753h-1.42Z" fill="#5293c5"/>
        <path id="Path_118" data-name="Path 118" d="M556.444,303.715l1.421-.416v1.628h1.109v1.04h-1.109v3.015c0,.623.208.762.624.762a1.064,1.064,0,0,0,.554-.139v.971a2.465,2.465,0,0,1-.9.208c-1.039,0-1.628-.486-1.628-1.7V305.93h-1.04v-1.039h.9l.069-1.178Z" fill="#5293c5"/>
        <path id="Path_119" data-name="Path 119" d="M564.137,310.4a4.15,4.15,0,0,1-1.767.347,2.562,2.562,0,0,1-2.668-2.876c0-1.767.9-3.084,2.391-3.084,1.282,0,2.321.693,2.321,3.084v.277h-3.361c0,.97.416,1.629,1.49,1.629a3.027,3.027,0,0,0,1.559-.416Zm-1.074-3.084c0-1.039-.347-1.559-.97-1.559-.693,0-1.04.762-1.04,1.559Z" fill="#5293c5"/>
        <path id="Path_120" data-name="Path 120" d="M570.236,302.259v7.45a3.706,3.706,0,0,0,.069.971h-1.351c0-.139-.07-.485-.07-.9h0a1.536,1.536,0,0,1-1.559.97c-1.421,0-2.044-1.421-2.044-2.945,0-1.906.762-3.015,1.975-3.015a1.593,1.593,0,0,1,1.49.9h0v-3.431Zm-2.53,7.52c.832,0,1.109-.9,1.109-1.975,0-1.109-.277-1.976-1.039-1.976s-1.04.763-1.04,1.906C566.736,309.086,566.944,309.779,567.706,309.779Z" fill="#5293c5"/>
        <path id="Path_121" data-name="Path 121" d="M574.6,302.814h1.7l2.6,6.2h0v-6.2h1.351v7.866h-1.7l-2.6-6.134h0v6.134H574.6Z" fill="#5293c5"/>
        <path id="Path_122" data-name="Path 122" d="M581.983,305.2a3.656,3.656,0,0,1,1.836-.416c1.837,0,2.183.831,2.183,2.322v2.529c0,.416.07.762.07,1.04h-1.283a2.61,2.61,0,0,1-.069-.763h0a1.778,1.778,0,0,1-1.629.832,1.693,1.693,0,0,1-1.767-1.7c0-1.559,1.282-1.975,3.015-1.975h.277v-.208a1,1,0,0,0-1.039-1.109,2.986,2.986,0,0,0-1.629.555V305.2Zm2.772,2.668h-.139c-1.213,0-1.906.277-1.906,1.109a.838.838,0,0,0,.9.9c.832,0,1.109-.624,1.109-1.629l.035-.381Z" fill="#5293c5"/>
        <path id="Path_123" data-name="Path 123" d="M587.908,303.715l1.421-.416v1.628h1.109v1.04h-1.213v3.015c0,.623.208.762.624.762a1.067,1.067,0,0,0,.554-.139v.971a2.464,2.464,0,0,1-.9.208c-1.04,0-1.629-.486-1.629-1.7V305.93h-.9v-1.039h.9l.035-1.178Z" fill="#5293c5"/>
        <path id="Path_124" data-name="Path 124" d="M591.443,302.467h1.42v1.421h-1.42Zm0,2.46h1.42v5.753h-1.42Z" fill="#5293c5"/>
        <path id="Path_125" data-name="Path 125" d="M596.64,304.789c1.213,0,2.53.624,2.53,2.945,0,2.461-1.352,3.015-2.53,3.015s-2.529-.554-2.529-3.015C594.111,305.413,595.427,304.789,596.64,304.789Zm0,4.99c.9,0,1.109-1.04,1.109-1.975,0-.9-.208-1.976-1.109-1.976s-1.109,1.04-1.109,1.976C595.5,308.739,595.705,309.779,596.64,309.779Z" fill="#5293c5"/>
        <path id="Path_126" data-name="Path 126" d="M600.279,305.828a4.22,4.22,0,0,0-.07-.97h1.352c0,.277.069.555.069.9h0a1.654,1.654,0,0,1,1.559-.97c1.352,0,1.7.97,1.7,2.183v3.742h-1.42v-3.43c0-.9-.208-1.282-.763-1.282-.693,0-.97.623-.97,1.351v3.361h-1.421l-.034-4.886Z" fill="#5293c5"/>
        <path id="Path_127" data-name="Path 127" d="M606,309.363a4.019,4.019,0,0,0,1.49.346c.485,0,.9-.138.9-.554,0-.208-.138-.416-.624-.693l-.554-.347c-.554-.346-1.213-.693-1.213-1.628a1.842,1.842,0,0,1,1.975-1.629,7.917,7.917,0,0,1,1.49.208l-.069,1.04a2.975,2.975,0,0,0-1.213-.278c-.554,0-.762.208-.762.555,0,.277.277.485.624.762l.693.416c.693.485,1.039.762,1.039,1.49,0,1.04-.9,1.7-2.183,1.7a4.32,4.32,0,0,1-1.628-.277v-1.109Z" fill="#5293c5"/>
      </g>
    </g>
    <g id="Group_223" data-name="Group 223">
      <path id="Path_128" data-name="Path 128" d="M481.8,316.744a19.965,19.965,0,1,1,14.15-5.845A19.96,19.96,0,0,1,481.8,316.744Zm-.069-27.791s1.628,1.7,1.628,3.084a1.654,1.654,0,0,1-1.559,1.837h-.139a1.673,1.673,0,0,1-1.559-1.837c.005-1.386,1.634-3.084,1.634-3.084Zm-14.97,8.94h1.8v-3.361h3.015v-1.421h-3.015V291.2h3.153v-1.42h-4.955Zm16.668-8.732h1.9l-2.252-8.005h-2.46l-2.322,8.005h1.767l.486-1.837h2.321Zm-.867-3.153h-1.7l.763-3.535h.138Zm8.455,7.866c0,2.391,1.109,4.158,3.361,4.158,2.322,0,3.431-1.837,3.431-4.158,0-2.391-1.109-4.159-3.431-4.159-2.212,0-3.356,1.837-3.356,4.159Zm1.975,0c0-1.56.347-2.807,1.49-2.807,1.109,0,1.49,1.282,1.49,2.807s-.415,2.806-1.49,2.806c-1.138,0-1.482-1.247-1.482-2.806Zm-12.024,20.617a22.518,22.518,0,0,0,.208-3.534v-.208c0-2.045-.069-2.738-1.49-3.223-2.114-.693-3.014-3.084-2.529-6.064l-7.035-18.019a17.72,17.72,0,0,0,10.846,31.048Zm.832-11.469c-2.807-.624-3.881-3.223-3.881-5.475l-6.2-15.351c-.415.277-.762.554-1.212.9,1.42,3.223,7.519,17.811,7.519,17.811,1.039,2.6,3.084,1.767,3.534,3.95a3.093,3.093,0,0,1,.139.763h.208a3.755,3.755,0,0,1,.139-.763c.485-2.183,2.46-1.282,3.534-3.95,0,0,6.133-14.554,7.519-17.811a12.253,12.253,0,0,0-1.212-.9l-6.2,15.281c.069,2.322-1.005,4.852-3.881,5.545Zm0-4.644a3.95,3.95,0,0,1-2.876-2.945,7.2,7.2,0,0,1-.069-1.906l-5.441-12.371c-.416.208-.831.486-1.282.763,1.629,3.673,6.619,14.831,6.619,14.831.762,1.7,2.183,1.7,2.668,2.668a11.459,11.459,0,0,1,.346,1.109h.208a2.136,2.136,0,0,1,.347-1.109c.485-.97,1.836-1.04,2.668-2.668,0,0,4.99-11.193,6.618-14.831a9.558,9.558,0,0,0-1.282-.763l-5.4,12.3a7.294,7.294,0,0,1-.07,1.906,4.139,4.139,0,0,1-3.049,3.014Zm.069-2.113.07-.693c.346-1.56,1.49-1.352,2.252-2.877h0c0-.069,3.881-8.316,5.475-11.746a17.338,17.338,0,0,0-7.866-1.906,17.124,17.124,0,0,0-7.866,1.906c1.629,3.43,5.475,11.746,5.475,11.746h0c.762,1.56,1.906,1.352,2.252,2.877l.07.693Zm17.742.485a17.607,17.607,0,0,0-6.064-13.306l-7.1,18.088c.485,2.945-.416,5.336-2.529,6.064-1.421.415-1.49,1.109-1.49,3.222v.208c0,1.49.138,2.738.208,3.535a17.878,17.878,0,0,0,16.98-17.811Zm-29.9,5.3.485.971a9.083,9.083,0,0,0,.485.831l-.485.277a14.04,14.04,0,0,1-.693-1.282,2.554,2.554,0,0,1-.763.347c.07.069.624,1.213.624,1.213l-.416.277s-.554-1.109-.623-1.213c-.07.069-1.352.693-1.352.693l-.277-.624,3.015-1.49Zm1.9,3.015.416.485-2.6,2.183-.415-.485,2.6-2.183ZM474,307.317l.485.347-.623,3.6-.555-.347s.139-.693.139-.762a7.086,7.086,0,0,1-.693-.485,3.729,3.729,0,0,1-.693-.555c-.069.07-.693.416-.693.416l-.485-.416,3.118-1.8Zm-1.559,1.56c.069.069.277.208.485.416.208.138.485.277.555.346,0-.139.277-1.351.346-1.559-.167.07-1.241.728-1.38.8Zm3.673-.208a12.621,12.621,0,0,0,1.352.554,6.991,6.991,0,0,0,1.42.416l-.138.485a9.977,9.977,0,0,1-1.109-.277c-.07.139-.9,2.668-.9,2.668l-.624-.208s.9-2.529.9-2.668a4.79,4.79,0,0,1-1.04-.485Zm10.673.693a1.5,1.5,0,0,1,.485.624.625.625,0,0,1,.069.346c0,.485-.346.832-.9,1.04a2.744,2.744,0,0,0-.416.138c0,.139.416,1.282.416,1.282l-.623.07-.971-3.223.9-.277a1.337,1.337,0,0,1,1.051,0Zm-1.248.554c0,.07.278.9.278.971a2.638,2.638,0,0,1,.415-.139,1.051,1.051,0,0,0,.416-.277c0-.07.069-.139.069-.208v-.139a.96.96,0,0,0-.207-.277.764.764,0,0,0-.555,0c-.063,0-.34.07-.41.07Zm3.223-1.975,2.945,2.114-.485.346s-.554-.415-.624-.485c0,0-.346.208-.623.416a2.019,2.019,0,0,1-.693.347c0,.069.138.762.138.762l-.554.277-.485-3.6Zm.346,2.253a3.866,3.866,0,0,1,.555-.278,4.156,4.156,0,0,0,.416-.277c-.139-.069-1.04-.762-1.213-.9.041.208.248,1.317.248,1.461Zm3.05-5.2,2.529,2.252-.415.555s-2.391-.693-2.738-.763c.277.277,1.767,1.837,1.767,1.837l-.485.346-2.391-2.46.555-.485s2.321.693,2.668.762c-.277-.277-1.906-1.628-1.906-1.628Zm1.109-1.767,2.945,1.7-.277.486-2.946-1.7Zm1.351-2.807.485.277-.069.069a3.833,3.833,0,0,0-.347.555.438.438,0,0,0,0,.416c.07.069.139.138.208.138.208.069.416-.138.624-.346a1.172,1.172,0,0,1,1.351-.486c.624.208.832.763.555,1.56a2.789,2.789,0,0,1-.347.624v.069l-.485-.208.069-.069a1.911,1.911,0,0,0,.347-.555c.069-.208.069-.624-.277-.693-.277-.069-.485.139-.763.347-.277.277-.623.693-1.212.485a.863.863,0,0,1-.555-.416,1.029,1.029,0,0,1,0-.9,1.573,1.573,0,0,1,.416-.866Z" fill="#5293c5"/>
    </g>
  </g>
</svg>
